<?xml version='1.0' encoding='utf-8'?>
<svg xmlns:xlink="http://www.w3.org/1999/xlink" xmlns="http://www.w3.org/2000/svg" x="39060pt" y="-460pt" width="1600pt" height="1e3pt" viewBox="39060 -460 1600 1e3"> <defs> <g id="2"> <defs> <path id="3" d="m40496-303.25c-0.1-39.839-32.2-71.929-72-72h-1128c-39.8 0.071-71.9 32.161-72 72v597c0.1 39.839 32.2 71.929 72 72h1128c39.8-0.071 71.9-32.161 72-72v-597zm-631-33.721c0 2.761-2.2 5-5 5s-5-2.239-5-5 2.2-5 5-5 5 2.239 5 5zm-141.8 9.721h-427.2c-13.2-0.07-24.1 10.82-24 24v597c-0.1 13.18 10.8 24.07 24 24h1128c13.2 0.07 24.1-10.82 24-24v-597c0.1-13.18-10.8-24.07-24-24h-427.2v11.712c0 9.942-8.1 18-18 18h-237.6c-9.9 0-18-8.058-18-18v-11.712zm-27.4 734.5h-447.8c-13.3 0-24 10.745-24 24s10.7 24 24 24h1224c13.3 0 24-10.745 24-24s-10.7-24-24-24h-447.8c-0.4 0.622-0.9 1.206-1.4 1.741-2.1 2.087-4.9 3.259-7.9 3.259h-309.8c-3 0-5.8-1.172-7.9-3.259-0.5-0.535-1-1.119-1.4-1.741z"/> </defs> <use fill="#001838" fill-rule="evenodd" xlink:href="#3"/> </g> </defs> <use xlink:href="#2"/> <defs> <g id="4"> <defs> <path id="5" d="m39224-68.722h1272v217.44h-1272v-217.44z"/> </defs> <use fill="#001939" fill-rule="evenodd" xlink:href="#5"/> </g> </defs> <use xlink:href="#4"/> <defs> <g id="7"> <defs> <path id="8" d="m40102 40c0 33.137-26.9 60-60 60h-364.2c-33.1 0-60-26.863-60-60s26.9-60 60-60h364.2c33.1 0 60 26.863 60 60z"/> </defs> <use fill="#ffffff" fill-rule="nonzero" xlink:href="#8"/> </g> </defs> <use xlink:href="#7"/> <defs> <g id="f"> <defs> <path id="e" d="m40067 40c0 17.48-14.2 31.65-31.6 31.65-17.5 0-31.7-14.17-31.7-31.65s14.2-31.65 31.7-31.65c17.4 0 31.6 14.17 31.6 31.65zm-39.9 15.8c-4.3-4.2983-8.6-8.5966-12.8-12.895 2.1-2.0952 4.2-4.1903 6.3-6.2855 3.1 3.0998 6.2 6.1996 9.2 9.2993 6.6-8.4383 13.1-16.877 19.6-25.315 2.4 1.8172 4.7 3.6345 7.1 5.4517-7.6 9.7759-15.2 19.552-22.7 29.328-1.1 1.3375-2.1 2.675-3.1 4.0125-1.2-1.1985-2.4-2.3971-3.6-3.5956z"/> </defs> <use fill="#8cc63f" fill-rule="evenodd" xlink:href="#e"/> </g> </defs> <use xlink:href="#f"/> <defs> <g id="d"> <defs> <path id="c" d="m39653 40.18v24.029c0 0.6563 0.2 1.2272 0.7 1.7077 0.6 0.6058 1.5 0.751 2.3 0.751h33.8c0.8 0 1.7-0.139 2.4-0.7204 0.6-0.5762 0.8-1.2855 0.8-2.1888v-23.514c0-0.9665-0.5-1.71-0.9-2.126-0.4-0.3392-1.1-0.7839-2.3-0.7839h-2.2v-9.5784c0-3.8786-0.8-7.3936-3.8-10.182-3-2.7881-6.6-4.2422-10.8-4.2422h-0.1c-4.3 0-7.9 1.4558-10.9 4.2422-3 2.7884-3.7 6.3034-3.7 10.182v9.5784h-2.3c-0.8 0-1.6 0.1836-2.2 0.7897-0.5 0.4805-0.8 1.1224-0.8 2.0557zm28-2.8454h-16v-9.5784c0-2.182 0.4-4.3001 2.1-5.875 1.6-1.5755 3.4-2.2461 5.8-2.2461h0.1c2.4 0 4.4 0.6706 5.9 2.2461 1.8 1.5758 2 3.693 2.1 5.875v9.5784z"/> </defs> <use fill="#8cc63f" fill-rule="evenodd" xlink:href="#c"/> </g> </defs> <use xlink:href="#d"/> <defs> <g id="b"> <defs> <path id="a" d="m39731 35.841 6.5 1.5661c2.9 0.6847 5 1.6004 6.5 2.7471 2.2 1.7801 3.4 4.3561 3.4 7.7279 0 3.4574-1.4 6.3286-4 8.6136-2.7 2.285-6.4 3.4275-11.2 3.4275-4.9 0-8.8-1.1254-11.6-3.3761-2.9-2.2508-4.3-5.3445-4.3-9.2812h7.6c0.2 1.7287 0.7 3.021 1.4 3.8768 1.3 1.5575 3.5 2.3363 6.6 2.3363 1.8 0 3.4-0.2054 4.5-0.6162 2.2-0.7873 3.3-2.2507 3.3-4.3902 0-1.2495-0.5-2.2165-1.6-2.9012-1.1-0.6675-2.8-1.258-5.2-1.7715l-4-0.8985c-3.9-0.8901-6.6-1.8571-8.1-2.9012-2.6-1.7458-3.9-4.4758-3.9-8.19 0-3.3889 1.3-6.2045 3.7-8.4467 2.5-2.2422 6.1-3.3633 10.9-3.3633 4 0 7.4 1.0569 10.2 3.1707 2.8 2.1139 4.3 5.1819 4.4 9.2041h-7.6c-0.1-2.2764-1.1-3.8938-3-4.8523-1.2-0.6333-2.7-0.95-4.5-0.95-2.1 0-3.7 0.4108-4.9 1.2324-1.2 0.8215-1.8 1.9683-1.8 3.4403 0 1.3521 0.6 2.362 1.8 3.0295 0.7 0.445 2.4 0.9671 4.9 1.5661zm53.9 16.303v6.8036h-28.7v-37.843h27.8v6.7009h-20v8.0359h18.4v6.5726h-18.4v9.7304h20.9zm24.9 7.8562c-5.5 0-9.8-1.7458-12.9-5.2375-3.1-3.5088-4.7-8.3183-4.7-14.429 0-6.6068 1.8-11.699 5.4-15.276 3-3.1151 7-4.6727 11.7-4.6727 6.4 0 11 2.0882 14 6.2645 1.6 2.3448 2.5 4.6983 2.6 7.0603h-7.9c-0.5-1.8143-1.2-3.1836-2-4.1078-1.4-1.6432-3.5-2.4647-6.4-2.4647-2.8 0-5.1 1.1596-6.8 3.4788-1.6 2.3192-2.5 5.6012-2.5 9.8459 0 4.2448 0.9 7.4241 2.7 9.5379 1.7 2.1138 4 3.1707 6.7 3.1707s4.8-0.9071 6.3-2.7214c0.8-0.9756 1.5-2.439 2-4.3902h7.8c-0.7 4.1249-2.4 7.4796-5.2 10.064s-6.4 3.8768-10.8 3.8768zm53.4-6.2388c-2.3 4.1079-6.8 6.1618-13.3 6.1618-6.6 0-11-2.0539-13.4-6.1618-1.2-2.2422-1.8-5.3744-1.8-9.3966v-23.261h8v23.261c0 2.6016 0.3 4.5015 0.9 5.6996 1 2.1224 3.1 3.1836 6.3 3.1836s5.3-1.0612 6.2-3.1836c0.6-1.1981 1-3.098 1-5.6996v-23.261h8v23.261c0 4.0222-0.6 7.1544-1.9 9.3966zm37.1-31.682c1.4 0.599 2.6 1.4805 3.6 2.6444 0.9 0.9585 1.5 2.0197 2 3.1836s0.7 2.4903 0.7 3.9794c0 1.7972-0.4 3.5644-1.3 5.3017-1 1.7373-2.5 2.9653-4.5 3.6842 1.7 0.7018 2.9 1.6988 3.7 2.991 0.7 1.2923 1.1 3.2649 1.1 5.9179v2.5417c0 1.7287 0 2.9011 0.2 3.5173 0.2 0.9756 0.6 1.6945 1.4 2.1566v0.95h-8.7c-0.2-0.8387-0.4-1.5148-0.5-2.0283-0.2-1.0612-0.3-2.148-0.3-3.2606l-0.1-3.5173c0-2.4133-0.5-4.0222-1.3-4.8267-0.9-0.8044-2.5-1.2067-4.8-1.2067h-8.1v14.84h-7.8v-37.843h18.6c2.6 0.0513 4.7 0.3765 6.1 0.9756zm-1.6 10.886c0-2.2935-0.8-3.8339-2.3-4.6213-0.9-0.445-2.1-0.6675-3.9-0.6675h-9.1v10.167h8.9c1.8 0 3.1-0.2054 4-0.6162 1.6-0.7189 2.4-2.1395 2.4-4.2619zm46.4 19.178v6.8036h-28.7v-37.843h27.8v6.7009h-20v8.0359h18.4v6.5726h-18.4v9.7304h20.9zm37.6-25.417c1.3 1.8827 2.2 3.9195 2.7 6.1104 0.5 2.1908 0.7 4.279 0.7 6.2644 0 5.0321-1 9.294-3 12.786-2.8 4.7069-7 7.0604-12.7 7.0604h-16.3v-37.843h16.3c2.3 0.0342 4.3 0.3081 5.9 0.8215 2.6 0.873 4.8 2.4733 6.4 4.8011zm-6.4 4.0308c-1.2-2.0539-3.6-3.0809-7.2-3.0809h-7.3v24.698h7.3c3.7 0 6.3-1.8399 7.8-5.5199 0.8-2.0196 1.2-4.4244 1.2-7.2143 0-3.8511-0.6-6.8122-1.8-8.8832z"/> </defs> <use fill="#001939" fill-rule="evenodd" xlink:href="#a"/> </g> </defs> <use xlink:href="#b"/> </svg>