<?xml version="1.0" encoding="UTF-8"?>
<svg width="40.29cm" height="21.87cm" version="1.1" viewBox="0 0 1142 620" xmlns="http://www.w3.org/2000/svg">
 <desc>Picture generated by wxSVG v0101</desc>
 <g transform="translate(0) scale(1)" fill="#fff" stroke="#000" stroke-linecap="round" stroke-linejoin="round" stroke-opacity="0">
  <rect width="1142" height="620" rx="0" shape-rendering="auto"/>
 </g>
 <g stroke="#00f" stroke-linecap="round" stroke-linejoin="round">
  <g transform="translate(-186 -13) scale(.82)" fill-opacity="0">
   <path d="m434.53 88.63a245 245 0 0 0 167.7-32.25" shape-rendering="auto"/>
  </g>
  <g transform="translate(-186 -13) scale(.82)" fill="#00f">
   <polygon points="421 85 433 92 435 84" fill-rule="evenodd" shape-rendering="auto"/>
  </g>
  <g transform="translate(-186 -13) scale(.82)" fill-opacity="0">
   <path d="m331.54 104.02a162 162 0 0 0-34.76 41.85" shape-rendering="auto"/>
  </g>
  <g transform="translate(-186 -13) scale(.82)" fill="#00f">
   <polygon points="343 96 329 100 333 107" fill-rule="evenodd" shape-rendering="auto"/>
  </g>
  <g transform="translate(-186 -13) scale(.82)" fill-opacity="0">
   <path d="m460.03 214.06a283 283 0 0 0-175.3 65.62" shape-rendering="auto"/>
  </g>
  <g transform="translate(-186 -13) scale(.82)" fill="#00f">
   <polygon points="474 215 460 210 459 218" fill-rule="evenodd" shape-rendering="auto"/>
  </g>
  <g transform="translate(-186 -13) scale(.82)" fill-opacity="0">
   <path d="m619 56-92 137" shape-rendering="auto"/>
  </g>
  <g transform="translate(-186 -13) scale(.82)" fill="#00f">
   <polygon points="520 205 531 195 524 191" fill-rule="evenodd" shape-rendering="auto"/>
  </g>
  <g transform="translate(-186 -13) scale(.82)" fill-opacity="0">
   <path d="m637.86 56.05a282 282 0 0 0 41.99 76.36" shape-rendering="auto"/>
  </g>
  <g transform="translate(-186 -13) scale(.82)" fill="#00f">
   <polygon points="689 143 682 129 676 135" fill-rule="evenodd" shape-rendering="auto"/>
  </g>
  <g transform="translate(-186 -13) scale(.82)" fill-opacity="0">
   <path d="m731.08 143.13a119 119 0 0 0 30.92-26.66" shape-rendering="auto"/>
  </g>
  <g transform="translate(-186 -13) scale(.82)" fill="#00f">
   <polygon points="770 105 758 114 765 118" fill-rule="evenodd" shape-rendering="auto"/>
  </g>
  <g transform="translate(-186 -13) scale(.82)" fill-opacity="0">
   <path d="m721.09 178.69a107 107 0 0 0 97.17 20.23" shape-rendering="auto"/>
  </g>
  <g transform="translate(-186 -13) scale(.82)" fill="#00f">
   <polygon points="711 169 718 181 723 175" fill-rule="evenodd" shape-rendering="auto"/>
  </g>
  <g transform="translate(-186 -13) scale(.82)" fill-opacity="0">
   <path d="m644.78 56.18a104 104 0 0 0 65.25 36.74" shape-rendering="auto"/>
  </g>
  <g transform="translate(-186 -13) scale(.82)" fill="#00f">
   <polygon points="724 93 710 88 710 96" fill-rule="evenodd" shape-rendering="auto"/>
  </g>
 </g>
 <g stroke-linecap="round" stroke-linejoin="round">
  <g transform="translate(-186 -13) scale(.82)" fill-opacity="0" stroke="#804000">
   <path d="m623.99 266.84a503 503 0 0 0-302.36 123.74" shape-rendering="auto"/>
  </g>
  <g transform="translate(-186 -13) scale(.82)" fill="#804000" stroke="#804000">
   <polygon points="638 267 624 262 623 270" fill-rule="evenodd" shape-rendering="auto"/>
  </g>
  <g transform="translate(-186 -13) scale(.82)" fill-opacity="0" stroke="#00f">
   <path d="m473.89 229.7a292 292 0 0 0-163.37 148.44" shape-rendering="auto"/>
  </g>
  <g transform="translate(-186 -13) scale(.82)" fill="#00f" stroke="#00f">
   <polygon points="305 391 314 379 306 376" fill-rule="evenodd" shape-rendering="auto"/>
  </g>
 </g>
 <g stroke="#40A062" stroke-linecap="round" stroke-linejoin="round">
  <g transform="translate(-186 -13) scale(.82)" fill-opacity="0">
   <path d="m301.27 507.17a123 123 0 0 0 84.12 89.56" shape-rendering="auto"/>
  </g>
  <g transform="translate(-186 -13) scale(.82)" fill="#40A062">
   <polygon points="399 600 386 592 384 600" fill-rule="evenodd" shape-rendering="auto"/>
  </g>
  <g transform="translate(-186 -13) scale(.82)" fill-opacity="0">
   <path d="m621.06 395.53a77 77 0 0 0-75.55 37.64" shape-rendering="auto"/>
  </g>
  <g transform="translate(-186 -13) scale(.82)" fill="#40A062">
   <polygon points="540 446 549 434 541 431" fill-rule="evenodd" shape-rendering="auto"/>
  </g>
  <g transform="translate(-186 -13) scale(.82)" fill-opacity="0">
   <path d="m533.11 485.94a74 74 0 0 0 22.58 49.38" shape-rendering="auto"/>
  </g>
  <g transform="translate(-186 -13) scale(.82)" fill="#40A062">
   <polygon points="534 472 529 485 537 486" fill-rule="evenodd" shape-rendering="auto"/>
  </g>
 </g>
 <g stroke="#804000" stroke-linecap="round" stroke-linejoin="round">
  <g transform="translate(-186 -13) scale(.82)" fill-opacity="0">
   <path d="m847.63 323.44a75 75 0 0 0-32.37 76.26" shape-rendering="auto"/>
  </g>
  <g transform="translate(-186 -13) scale(.82)" fill="#804000">
   <polygon points="821 411 819 398 813 400" fill-rule="evenodd" shape-rendering="auto"/>
  </g>
  <g transform="translate(-186 -13) scale(.82)" fill-opacity="0">
   <path d="m723.09 423.29a80 80 0 0 0 38.93-125.57" shape-rendering="auto"/>
  </g>
  <g transform="translate(-186 -13) scale(.82)" fill="#804000">
   <polygon points="752 288 759 300 764 294" fill-rule="evenodd" shape-rendering="auto"/>
  </g>
 </g>
 <g stroke="#40A062" stroke-linecap="round" stroke-linejoin="round">
  <g transform="translate(-186 -13) scale(.82)" fill-opacity="0">
   <path d="m720.44 503.82a497 497 0 0 0-154.43-42.88" shape-rendering="auto"/>
  </g>
  <g transform="translate(-186 -13) scale(.82)" fill="#40A062">
   <polygon points="733 510 722 500 718 507" fill-rule="evenodd" shape-rendering="auto"/>
  </g>
  <g transform="translate(-186 -13) scale(.82)" fill-opacity="0">
   <path d="m480.96 614.17a274 274 0 0 0 254.34-68.08" shape-rendering="auto"/>
  </g>
  <g transform="translate(-186 -13) scale(.82)" fill="#40A062">
   <polygon points="745 536 732 543 738 548" fill-rule="evenodd" shape-rendering="auto"/>
  </g>
 </g>
 <g stroke="#804000" stroke-linecap="round" stroke-linejoin="round">
  <g transform="translate(-186 -13) scale(.82)" fill-opacity="0">
   <path d="m637.8 279.38a290 290 0 0 0-199.17 294.69" shape-rendering="auto"/>
  </g>
  <g transform="translate(-186 -13) scale(.82)" fill="#804000">
   <polygon points="440 588 442 573 434 574" fill-rule="evenodd" shape-rendering="auto"/>
  </g>
  <g transform="translate(-186 -13) scale(.82)" fill-opacity="0">
   <path d="m880.07 544.99a150 150 0 0 0-25.26-62.12" shape-rendering="auto"/>
  </g>
  <g transform="translate(-186 -13) scale(.82)" fill="#804000">
   <polygon points="846 472 851 485 857 480" fill-rule="evenodd" shape-rendering="auto"/>
  </g>
 </g>
 <g stroke="#008000" stroke-linecap="round" stroke-linejoin="round">
  <g transform="translate(-186 -13) scale(.82)" fill-opacity="0">
   <path d="m770.26 510.26a530 530 0 0 0 25.08-27.26" shape-rendering="auto"/>
  </g>
  <g transform="translate(-186 -13) scale(.82)" fill="#008000">
   <polygon points="804 472 792 480 798 485" fill-rule="evenodd" shape-rendering="auto"/>
  </g>
  <g transform="translate(-186 -13) scale(.82)" fill-opacity="0" stroke-width="2">
   <path d="m754.57 631.34a179 179 0 0 0 5.31-95.53" shape-rendering="auto"/>
  </g>
 </g>
 <g stroke-linecap="round" stroke-linejoin="round">
  <g transform="translate(-186 -13) scale(.82)" fill="#008000" stroke="#008000">
   <polygon points="748 647 759 633 750 629" fill-rule="evenodd" shape-rendering="auto"/>
  </g>
  <g transform="translate(-186 -13) scale(.82)" fill="#C0C0C0" stroke="#C0C0C0">
   <rect x="594" y="18" width="80" height="40" rx="-.05" shape-rendering="auto"/>
  </g>
  <g transform="translate(-186 -13) scale(.82)" fill="#C0FFFF" stroke="#000">
   <rect x="592" y="16" width="80" height="40" rx="-.05" shape-rendering="auto"/>
   <text transform="rotate(0 614 41)" x="614.00" y="41.00" fill="#000000" font-family="Times New Roman" font-size="11.25pt" font-weight="400" stroke="#000000" stroke-width="0" style="white-space:pre" textLength="36" xml:space="preserve">Peces</text>
  </g>
  <g transform="translate(-186 -13) scale(.82)" fill="#C0C0C0" stroke="#C0C0C0">
   <rect x="623" y="395" width="102" height="60" rx="-.05" shape-rendering="auto"/>
  </g>
  <g transform="translate(-186 -13) scale(.82)" fill="#FFC080" stroke="#000">
   <rect x="621" y="393" width="102" height="60" rx="-.05" shape-rendering="auto"/>
   <text transform="rotate(0 629 428)" x="629.00" y="428.00" fill="#000000" font-family="Times New Roman" font-size="11.25pt" font-weight="400" stroke="#000000" stroke-width="0" style="white-space:pre" textLength="86" xml:space="preserve">Flota pesquera</text>
  </g>
  <g transform="translate(-186 -13) scale(.82)" fill="#C0C0C0" stroke="#C0C0C0">
   <rect x="850" y="703" width="126" height="66" rx="-.05" shape-rendering="auto"/>
  </g>
  <g transform="translate(-186 -13) scale(.82)" fill="#C0FFC0" stroke="#000">
   <rect x="848" y="701" width="126" height="66" rx="-.05" shape-rendering="auto"/>
   <text transform="rotate(0 858 730)" x="858.00" y="730.00" fill="#000000" font-family="Times New Roman" font-size="11.25pt" font-weight="400" stroke="#000000" stroke-width="0" style="white-space:pre" textLength="107" xml:space="preserve">balance financiero</text>
   <text transform="rotate(0 899 747)" x="899.00" y="747.00" fill="#000000" font-family="Times New Roman" font-size="11.25pt" font-weight="400" stroke="#000000" stroke-width="0" style="white-space:pre" textLength="25" xml:space="preserve">total</text>
  </g>
 </g>
 <g fill-opacity="0" stroke="#000" stroke-linecap="round" stroke-linejoin="round">
  <g transform="translate(-186 -13) scale(.82)" fill="none" shape-rendering="auto">
   <path d="m628 740-12 2c-8 1.33-15 1-21-1s-8.33-4.67-7-8 3-5 5-5h3"/>
   <path d="m596 728 2.5-5.5c1.67-3.67 4.33-5.17 8-4.5l5.5 1"/>
   <path d="m612 719 3.5-3c2.33-2 5-2.33 8-1s4.83 3.67 5.5 7l1 5"/>
   <path d="m630 727 3 1.5c2 1 3 2.67 3 5s-1.33 4-4 5l-4 1.5"/>
  </g>
  <g transform="translate(-186 -13) scale(.82)" stroke-opacity="0">
   <rect x="674" y="647" width="104" height="74" rx="-.05" shape-rendering="auto"/>
   <text transform="rotate(0 697 680)" x="697.00" y="680.00" fill="#000000" fill-opacity="1" font-family="Times New Roman" font-size="11.25pt" font-weight="400" stroke="#000000" stroke-opacity="1" stroke-width="0" style="white-space:pre" textLength="58" xml:space="preserve">ganancias</text>
   <text transform="rotate(0 704 697)" x="704.00" y="697.00" fill="#000000" fill-opacity="1" font-family="Times New Roman" font-size="11.25pt" font-weight="400" stroke="#000000" stroke-opacity="1" stroke-width="0" style="white-space:pre" textLength="44" xml:space="preserve">anuales</text>
  </g>
  <g transform="translate(-186 -13) scale(.82)" fill="none" shape-rendering="auto">
   <path d="m267 50-12 2c-8 1.33-15 1-21-1s-8.33-4.67-7-8 3-5 5-5h3"/>
   <path d="m235 38 2.5-5.5c1.67-3.67 4.33-5.17 8-4.5l5.5 1"/>
   <path d="m251 29 3.5-3c2.33-2 5-2.33 8-1s4.83 3.67 5.5 7l1 5"/>
   <path d="m269 37 3 1.5c2 1 3 2.67 3 5s-1.33 4-4 5l-4 1.5"/>
  </g>
  <g transform="translate(-186 -13) scale(.82)" stroke-opacity="0">
   <rect x="343" y="47" width="78" height="54" rx="-.05" shape-rendering="auto"/>
   <g fill="#000000" fill-opacity="1" font-family="Times New Roman" font-size="11.25pt" font-weight="400" stroke="#000000" stroke-opacity="1" stroke-width="0">
    <text transform="rotate(0 349 62)" x="349.00" y="62.00" style="white-space:pre" textLength="67" xml:space="preserve">cantidad de</text>
    <text transform="rotate(0 365 78)" x="365.00" y="78.00" style="white-space:pre" textLength="34" xml:space="preserve">peces</text>
    <text transform="rotate(0 362 94)" x="362.00" y="94.00" style="white-space:pre" textLength="41" xml:space="preserve">nuevos</text>
   </g>
  </g>
  <g transform="translate(-186 -13) scale(.82)" fill="none" shape-rendering="auto">
   <path d="m927 50-12 2c-8 1.33-15 1-21-1s-8.33-4.67-7-8 3-5 5-5h3"/>
   <path d="m895 38 2.5-5.5c1.67-3.67 4.33-5.17 8-4.5l5.5 1"/>
   <path d="m911 29 3.5-3c2.33-2 5-2.33 8-1s4.83 3.67 5.5 7l1 5"/>
   <path d="m929 37 3 1.5c2 1 3 2.67 3 5s-1.33 4-4 5l-4 1.5"/>
  </g>
  <g transform="translate(-186 -13) scale(.82)" stroke-opacity="0">
   <rect x="724" y="47" width="120" height="58" rx="-.05" shape-rendering="auto"/>
   <text transform="rotate(0 732 72)" x="732.00" y="72.00" fill="#000000" fill-opacity="1" font-family="Times New Roman" font-size="11.25pt" font-weight="400" stroke="#000000" stroke-opacity="1" stroke-width="0" style="white-space:pre" textLength="105" xml:space="preserve">cantidad de peces</text>
   <text transform="rotate(0 761 89)" x="761.00" y="89.00" fill="#000000" fill-opacity="1" font-family="Times New Roman" font-size="11.25pt" font-weight="400" stroke="#000000" stroke-opacity="1" stroke-width="0" style="white-space:pre" textLength="47" xml:space="preserve">muertos</text>
  </g>
  <g transform="translate(-186 -13) scale(.82)" fill="none" shape-rendering="auto">
   <path d="m843 240-12 2c-8 1.33-15 1-21-1s-8.33-4.67-7-8 3-5 5-5h3"/>
   <path d="m811 228 2.5-5.5c1.67-3.67 4.33-5.17 8-4.5l5.5 1"/>
   <path d="m827 219 3.5-3c2.33-2 5-2.33 8-1s4.83 3.67 5.5 7l1 5"/>
   <path d="m845 227 3 1.5c2 1 3 2.67 3 5s-1.33 4-4 5l-4 1.5"/>
  </g>
  <g transform="translate(-186 -13) scale(.82)" stroke-opacity="0">
   <rect x="638" y="237" width="114" height="60" rx="-.05" shape-rendering="auto"/>
   <text transform="rotate(0 641 272)" x="641.00" y="272.00" fill="#000000" fill-opacity="1" font-family="Times New Roman" font-size="11.25pt" font-weight="400" stroke="#000000" stroke-opacity="1" stroke-width="0" style="white-space:pre" textLength="108" xml:space="preserve">captura total anual</text>
  </g>
  <g transform="translate(-186 -13) scale(.82)" fill="none" shape-rendering="auto">
   <path d="m945 429-12 2c-8 1.33-15 1-21-1s-8.33-4.67-7-8 3-5 5-5h3"/>
   <path d="m913 417 2.5-5.5c1.67-3.67 4.33-5.17 8-4.5l5.5 1"/>
   <path d="m929 408 3.5-3c2.33-2 5-2.33 8-1s4.83 3.67 5.5 7l1 5"/>
   <path d="m947 416 3 1.5c2 1 3 2.67 3 5s-1.33 4-4 5l-4 1.5"/>
  </g>
  <g transform="translate(-186 -13) scale(.82)" stroke-opacity="0">
   <rect x="760" y="426" width="124" height="46" rx="-.05" shape-rendering="auto"/>
   <text transform="rotate(0 780 445)" x="780.00" y="445.00" fill="#000000" fill-opacity="1" font-family="Times New Roman" font-size="11.25pt" font-weight="400" stroke="#000000" stroke-opacity="1" stroke-width="0" style="white-space:pre" textLength="84" xml:space="preserve">nuevos barcos</text>
   <text transform="rotate(0 789 462)" x="789.00" y="462.00" fill="#000000" fill-opacity="1" font-family="Times New Roman" font-size="11.25pt" font-weight="400" stroke="#000000" stroke-opacity="1" stroke-width="0" style="white-space:pre" textLength="66" xml:space="preserve">construidos</text>
   <rect x="508" y="446" width="58" height="26" rx="-.05" shape-rendering="auto"/>
   <text transform="rotate(0 519 464)" x="519.00" y="464.00" fill="#000000" fill-opacity="1" font-family="Times New Roman" font-size="11.25pt" font-weight="400" stroke="#000000" stroke-opacity="1" stroke-width="0" style="white-space:pre" textLength="37" xml:space="preserve">costos</text>
   <rect x="848" y="278" width="90" height="66" rx="-.05" shape-rendering="auto"/>
   <text transform="rotate(0 858 307)" x="858.00" y="307.00" fill="#000000" fill-opacity="1" font-family="Times New Roman" font-size="11.25pt" font-weight="400" stroke="#000000" stroke-opacity="1" stroke-width="0" style="white-space:pre" textLength="70" xml:space="preserve">inversión en</text>
   <text transform="rotate(0 851 324)" x="851.00" y="324.00" fill="#000000" fill-opacity="1" font-family="Times New Roman" font-size="11.25pt" font-weight="400" stroke="#000000" stroke-opacity="1" stroke-width="0" style="white-space:pre" textLength="84" xml:space="preserve">nuevos barcos</text>
   <rect x="254" y="461" width="88" height="46" rx="-.05" shape-rendering="auto"/>
   <text transform="rotate(0 270 480)" x="270.00" y="480.00" fill="#000000" fill-opacity="1" font-family="Times New Roman" font-size="11.25pt" font-weight="400" stroke="#000000" stroke-opacity="1" stroke-width="0" style="white-space:pre" textLength="57" xml:space="preserve">precio del</text>
   <text transform="rotate(0 274 497)" x="274.00" y="497.00" fill="#000000" fill-opacity="1" font-family="Times New Roman" font-size="11.25pt" font-weight="400" stroke="#000000" stroke-opacity="1" stroke-width="0" style="white-space:pre" textLength="48" xml:space="preserve">pescado</text>
   <rect x="399" y="588" width="84" height="26" rx="-.05" shape-rendering="auto"/>
   <text transform="rotate(0 412 606)" x="412.00" y="606.00" fill="#000000" fill-opacity="1" font-family="Times New Roman" font-size="11.25pt" font-weight="400" stroke="#000000" stroke-opacity="1" stroke-width="0" style="white-space:pre" textLength="58" xml:space="preserve">ganancias</text>
   <rect x="246" y="391" width="100" height="46" rx="-.05" shape-rendering="auto"/>
   <text transform="rotate(0 263 410)" x="263.00" y="410.00" fill="#000000" fill-opacity="1" font-family="Times New Roman" font-size="11.25pt" font-weight="400" stroke="#000000" stroke-opacity="1" stroke-width="0" style="white-space:pre" textLength="67" xml:space="preserve">captura por</text>
   <text transform="rotate(0 280 427)" x="280.00" y="427.00" fill="#000000" fill-opacity="1" font-family="Times New Roman" font-size="11.25pt" font-weight="400" stroke="#000000" stroke-opacity="1" stroke-width="0" style="white-space:pre" textLength="33" xml:space="preserve">barco</text>
   <rect x="474" y="205" width="76" height="26" rx="-.05" shape-rendering="auto"/>
   <text transform="rotate(0 487 223)" x="487.00" y="223.00" fill="#000000" fill-opacity="1" font-family="Times New Roman" font-size="11.25pt" font-weight="400" stroke="#000000" stroke-opacity="1" stroke-width="0" style="white-space:pre" textLength="51" xml:space="preserve">densidad</text>
   <rect x="252" y="280" width="38" height="26" rx="-.05" shape-rendering="auto"/>
   <text transform="rotate(0 258 298)" x="258.00" y="298.00" fill="#000000" fill-opacity="1" font-family="Times New Roman" font-size="11.25pt" font-weight="400" stroke="#000000" stroke-opacity="1" stroke-width="0" style="white-space:pre" textLength="26" xml:space="preserve">área</text>
   <rect x="239" y="146" width="88" height="60" rx="-.05" shape-rendering="auto"/>
   <g fill="#000000" fill-opacity="1" font-family="Times New Roman" font-size="11.25pt" font-weight="400" stroke="#000000" stroke-opacity="1" stroke-width="0">
    <text transform="rotate(0 262 164)" x="262.00" y="164.00" style="white-space:pre" textLength="42" xml:space="preserve">tasa de</text>
    <text transform="rotate(0 248 181)" x="248.00" y="181.00" style="white-space:pre" textLength="70" xml:space="preserve">natalidad de</text>
    <text transform="rotate(0 266 198)" x="266.00" y="198.00" style="white-space:pre" textLength="34" xml:space="preserve">peces</text>
   </g>
   <rect x="654" y="143" width="94" height="26" rx="-.05" shape-rendering="auto"/>
   <text transform="rotate(0 671 161)" x="671.00" y="161.00" fill="#000000" fill-opacity="1" font-family="Times New Roman" font-size="11.25pt" font-weight="400" stroke="#000000" stroke-opacity="1" stroke-width="0" style="white-space:pre" textLength="61" xml:space="preserve">mortalidad</text>
   <rect x="818" y="150" width="86" height="50" rx="-.05" shape-rendering="auto"/>
   <text transform="rotate(0 823 171)" x="823.00" y="171.00" fill="#000000" fill-opacity="1" font-family="Times New Roman" font-size="11.25pt" font-weight="400" stroke="#000000" stroke-opacity="1" stroke-width="0" style="white-space:pre" textLength="77" xml:space="preserve">capacidad de</text>
   <text transform="rotate(0 845 188)" x="845.00" y="188.00" fill="#000000" fill-opacity="1" font-family="Times New Roman" font-size="11.25pt" font-weight="400" stroke="#000000" stroke-opacity="1" stroke-width="0" style="white-space:pre" textLength="33" xml:space="preserve">carga</text>
   <rect x="556" y="532" width="134" height="46" rx="-.05" shape-rendering="auto"/>
   <text transform="rotate(0 569 551)" x="569.00" y="551.00" fill="#000000" fill-opacity="1" font-family="Times New Roman" font-size="11.25pt" font-weight="400" stroke="#000000" stroke-opacity="1" stroke-width="0" style="white-space:pre" textLength="109" xml:space="preserve">costo de operar un</text>
   <text transform="rotate(0 607 568)" x="607.00" y="568.00" fill="#000000" fill-opacity="1" font-family="Times New Roman" font-size="11.25pt" font-weight="400" stroke="#000000" stroke-opacity="1" stroke-width="0" style="white-space:pre" textLength="33" xml:space="preserve">barco</text>
   <rect x="832" y="545" width="100" height="46" rx="-.05" shape-rendering="auto"/>
   <text transform="rotate(0 849 564)" x="849.00" y="564.00" fill="#000000" fill-opacity="1" font-family="Times New Roman" font-size="11.25pt" font-weight="400" stroke="#000000" stroke-opacity="1" stroke-width="0" style="white-space:pre" textLength="67" xml:space="preserve">costo de un</text>
   <text transform="rotate(0 866 581)" x="866.00" y="581.00" fill="#000000" fill-opacity="1" font-family="Times New Roman" font-size="11.25pt" font-weight="400" stroke="#000000" stroke-opacity="1" stroke-width="0" style="white-space:pre" textLength="33" xml:space="preserve">barco</text>
   <rect x="699" y="510" width="116" height="26" rx="-.05" shape-rendering="auto"/>
   <text transform="rotate(0 717 528)" x="717.00" y="528.00" fill="#000000" fill-opacity="1" font-family="Times New Roman" font-size="11.25pt" font-weight="400" stroke="#000000" stroke-opacity="1" stroke-width="0" style="white-space:pre" textLength="80" xml:space="preserve">balance anual</text>
  </g>
 </g>
 <g stroke="#000" stroke-linecap="round" stroke-linejoin="round">
  <g transform="translate(-186 -13) scale(.82)" fill="#C0FFC0">
   <path d="m726 725h122" shape-rendering="auto"/>
   <path d="m848 733h-122" shape-rendering="auto"/>
   <text transform="rotate(0 786 720)" x="786.00" y="720.00" fill="#000000" font-family="Times New Roman" font-size="11.25pt" font-weight="400" stroke="#000000" stroke-width="0" style="white-space:pre" textLength="8" xml:space="preserve">+</text>
  </g>
  <g transform="translate(-186 -13) scale(.82)" fill="#fff">
   <path d="m726 733h-90" shape-rendering="auto"/>
   <path d="m636 725h90" shape-rendering="auto"/>
   <text transform="rotate(0 654 720)" x="654.00" y="720.00" fill="#000000" font-family="Times New Roman" font-size="11.25pt" font-weight="400" stroke="#000000" stroke-width="0" style="white-space:pre" textLength="8" xml:space="preserve">–</text>
  </g>
  <g transform="translate(-186 -13) scale(.82)" fill="#C0FFFF" shape-rendering="auto">
   <path d="m382 35h210"/>
   <path d="m592 43h-210"/>
  </g>
  <g transform="translate(-186 -13) scale(.82)" fill="#fff" shape-rendering="auto">
   <path d="m382 43h-107"/>
   <path d="m275 35h107"/>
   <path d="m784 35h102"/>
   <path d="m886 43h-102"/>
  </g>
  <g transform="translate(-186 -13) scale(.82)" fill="#C0FFFF" shape-rendering="auto">
   <path d="m784 43h-113"/>
   <path d="m671 35h113"/>
  </g>
  <g transform="translate(-186 -13) scale(.82)" fill="#fff" shape-rendering="auto">
   <path d="m695 225h107"/>
   <path d="m802 233h-107"/>
  </g>
  <g transform="translate(-186 -13) scale(.82)" fill="#C0FFFF" shape-rendering="auto">
   <path d="m695 233h-59"/>
   <path d="m636 233h-8"/>
   <path d="m628 233v-178"/>
   <path d="m636 55v170"/>
   <path d="m636 225h59"/>
  </g>
  <g transform="translate(-186 -13) scale(.82)" fill="#FFC080" shape-rendering="auto">
   <path d="m822 422h-100"/>
   <path d="m722 414h100"/>
  </g>
  <g transform="translate(-186 -13) scale(.82)" fill="#fff" shape-rendering="auto">
   <path d="m822 414h82"/>
   <path d="m904 422h-82"/>
  </g>
  <g transform="translate(-186 -13) scale(.82)" fill-rule="evenodd" shape-rendering="auto">
   <polygon points="719 729 733 729 729 731 729 727 733 729"/>
   <polygon points="733 729 719 729 723 731 723 727 719 729"/>
   <polygon points="375 39 389 39 385 41 385 37 389 39"/>
   <polygon points="777 39 791 39 787 41 787 37 791 39"/>
   <polygon points="688 229 702 229 698 231 698 227 702 229"/>
   <polygon points="829 418 815 418 819 420 819 416 815 418"/>
  </g>
 </g>
</svg>
