<?xml version="1.0" encoding="UTF-8" standalone="no"?>
<!DOCTYPE svg PUBLIC "-//W3C//DTD SVG 1.0//EN" "http://www.w3.org/TR/2001/REC-SVG-20010904/DTD/svg10.dtd">

<svg xmlns="http://www.w3.org/2000/svg" xmlns:xlink="http://www.w3.org/1999/xlink" width="40.29cm" height="21.87cm" viewBox="0 0 1142 620">
<title></title>
<desc>Picture generated by wxSVG v0101</desc>

<g style="fill:black; stroke:black; stroke-width:1">
</g>
<g style="stroke-width:1; stroke-linecap:round; stroke-linejoin:round; fill:#FFFFFF; fill-opacity:1.00; stroke:#000000; stroke-opacity:0.0;" transform="translate(0 0) scale(1.00 1.00)">
  <rect x="0" y="0" width="1142" height="620" rx="0.00" shape-rendering="auto"  />
</g>
<g style="stroke-width:1; stroke-linecap:round; stroke-linejoin:round; fill:#FFFFFF; fill-opacity:1.00; stroke:#000000; stroke-opacity:1.00;" transform="translate(0 0) scale(1.00 1.00)">
</g>
<g style="stroke-width:1; stroke-linecap:round; stroke-linejoin:round; fill:#000000; fill-opacity:0.0; stroke:#0000FF; stroke-opacity:1.00;" transform="translate(-186 -13) scale(0.82 0.82)">
  <path d="M434.53 88.63 A245.00 245.00 0 0 0 602.23 56.38" shape-rendering="auto" />
</g>
<g style="stroke-width:1; stroke-linecap:round; stroke-linejoin:round; fill:#0000FF; fill-opacity:1.00; stroke:#0000FF; stroke-opacity:1.00;" transform="translate(-186 -13) scale(0.82 0.82)">
  <polygon points="421 85 433 92 435 84 421 85 " shape-rendering="auto"   style="fill-rule:evenodd;"/>
</g>
<g style="stroke-width:1; stroke-linecap:round; stroke-linejoin:round; fill:#000000; fill-opacity:0.0; stroke:#0000FF; stroke-opacity:1.00;" transform="translate(-186 -13) scale(0.82 0.82)">
  <path d="M331.54 104.02 A162.00 162.00 0 0 0 296.78 145.87" shape-rendering="auto" />
</g>
<g style="stroke-width:1; stroke-linecap:round; stroke-linejoin:round; fill:#0000FF; fill-opacity:1.00; stroke:#0000FF; stroke-opacity:1.00;" transform="translate(-186 -13) scale(0.82 0.82)">
  <polygon points="343 96 329 100 333 107 343 96 " shape-rendering="auto"   style="fill-rule:evenodd;"/>
</g>
<g style="stroke-width:1; stroke-linecap:round; stroke-linejoin:round; fill:#000000; fill-opacity:0.0; stroke:#0000FF; stroke-opacity:1.00;" transform="translate(-186 -13) scale(0.82 0.82)">
  <path d="M460.03 214.06 A283.00 283.00 0 0 0 284.73 279.68" shape-rendering="auto" />
</g>
<g style="stroke-width:1; stroke-linecap:round; stroke-linejoin:round; fill:#0000FF; fill-opacity:1.00; stroke:#0000FF; stroke-opacity:1.00;" transform="translate(-186 -13) scale(0.82 0.82)">
  <polygon points="474 215 460 210 459 218 474 215 " shape-rendering="auto"   style="fill-rule:evenodd;"/>
</g>
<g style="stroke-width:1; stroke-linecap:round; stroke-linejoin:round; fill:#000000; fill-opacity:0.0; stroke:#0000FF; stroke-opacity:1.00;" transform="translate(-186 -13) scale(0.82 0.82)">
  <path d="M619 56 L527 193" shape-rendering="auto" />
</g>
<g style="stroke-width:1; stroke-linecap:round; stroke-linejoin:round; fill:#0000FF; fill-opacity:1.00; stroke:#0000FF; stroke-opacity:1.00;" transform="translate(-186 -13) scale(0.82 0.82)">
  <polygon points="520 205 531 195 524 191 520 205 " shape-rendering="auto"   style="fill-rule:evenodd;"/>
</g>
<g style="stroke-width:1; stroke-linecap:round; stroke-linejoin:round; fill:#000000; fill-opacity:0.0; stroke:#0000FF; stroke-opacity:1.00;" transform="translate(-186 -13) scale(0.82 0.82)">
  <path d="M637.86 56.05 A282.00 282.00 0 0 0 679.85 132.41" shape-rendering="auto" />
</g>
<g style="stroke-width:1; stroke-linecap:round; stroke-linejoin:round; fill:#0000FF; fill-opacity:1.00; stroke:#0000FF; stroke-opacity:1.00;" transform="translate(-186 -13) scale(0.82 0.82)">
  <polygon points="689 143 682 129 676 135 689 143 " shape-rendering="auto"   style="fill-rule:evenodd;"/>
</g>
<g style="stroke-width:1; stroke-linecap:round; stroke-linejoin:round; fill:#000000; fill-opacity:0.0; stroke:#0000FF; stroke-opacity:1.00;" transform="translate(-186 -13) scale(0.82 0.82)">
  <path d="M731.08 143.13 A119.00 119.00 0 0 0 762.00 116.47" shape-rendering="auto" />
</g>
<g style="stroke-width:1; stroke-linecap:round; stroke-linejoin:round; fill:#0000FF; fill-opacity:1.00; stroke:#0000FF; stroke-opacity:1.00;" transform="translate(-186 -13) scale(0.82 0.82)">
  <polygon points="770 105 758 114 765 118 770 105 " shape-rendering="auto"   style="fill-rule:evenodd;"/>
</g>
<g style="stroke-width:1; stroke-linecap:round; stroke-linejoin:round; fill:#000000; fill-opacity:0.0; stroke:#0000FF; stroke-opacity:1.00;" transform="translate(-186 -13) scale(0.82 0.82)">
  <path d="M721.09 178.69 A107.00 107.00 0 0 0 818.26 198.92" shape-rendering="auto" />
</g>
<g style="stroke-width:1; stroke-linecap:round; stroke-linejoin:round; fill:#0000FF; fill-opacity:1.00; stroke:#0000FF; stroke-opacity:1.00;" transform="translate(-186 -13) scale(0.82 0.82)">
  <polygon points="711 169 718 181 723 175 711 169 " shape-rendering="auto"   style="fill-rule:evenodd;"/>
</g>
<g style="stroke-width:1; stroke-linecap:round; stroke-linejoin:round; fill:#000000; fill-opacity:0.0; stroke:#0000FF; stroke-opacity:1.00;" transform="translate(-186 -13) scale(0.82 0.82)">
  <path d="M644.78 56.18 A104.00 104.00 0 0 0 710.03 92.92" shape-rendering="auto" />
</g>
<g style="stroke-width:1; stroke-linecap:round; stroke-linejoin:round; fill:#0000FF; fill-opacity:1.00; stroke:#0000FF; stroke-opacity:1.00;" transform="translate(-186 -13) scale(0.82 0.82)">
  <polygon points="724 93 710 88 710 96 724 93 " shape-rendering="auto"   style="fill-rule:evenodd;"/>
</g>
<g style="stroke-width:1; stroke-linecap:round; stroke-linejoin:round; fill:#C0C0C0; fill-opacity:1.00; stroke:#C0C0C0; stroke-opacity:1.00;" transform="translate(-186 -13) scale(0.82 0.82)">
  <rect x="594" y="18" width="80" height="40" rx="-0.05" shape-rendering="auto"  />
</g>
<g style="stroke-width:1; stroke-linecap:round; stroke-linejoin:round; fill:#C0FFFF; fill-opacity:1.00; stroke:#000000; stroke-opacity:1.00;" transform="translate(-186 -13) scale(0.82 0.82)">
  <rect x="592" y="16" width="80" height="40" rx="-0.05" shape-rendering="auto"  />
  <text x="614.00" y="41.00" textLength="36" style="font-family:Times New Roman; font-weight:400; font-style:normal; font-size:11.25pt; text-decoration: none; fill:#000000; fill-opacity:1.00; stroke:#000000; stroke-opacity:1.00; stroke-width:0; white-space: pre;" xml:space="preserve" transform="rotate(0.00 614.00 41.00)">Peces</text>
</g>
<g style="stroke-width:1; stroke-linecap:round; stroke-linejoin:round; fill:#C0C0C0; fill-opacity:1.00; stroke:#C0C0C0; stroke-opacity:1.00;" transform="translate(-186 -13) scale(0.82 0.82)">
  <rect x="623" y="395" width="102" height="60" rx="-0.05" shape-rendering="auto"  />
</g>
<g style="stroke-width:1; stroke-linecap:round; stroke-linejoin:round; fill:#FFC080; fill-opacity:1.00; stroke:#000000; stroke-opacity:1.00;" transform="translate(-186 -13) scale(0.82 0.82)">
  <rect x="621" y="393" width="102" height="60" rx="-0.05" shape-rendering="auto"  />
  <text x="629.00" y="428.00" textLength="86" style="font-family:Times New Roman; font-weight:400; font-style:normal; font-size:11.25pt; text-decoration: none; fill:#000000; fill-opacity:1.00; stroke:#000000; stroke-opacity:1.00; stroke-width:0; white-space: pre;" xml:space="preserve" transform="rotate(0.00 629.00 428.00)">Flota pesquera</text>
</g>
<g style="stroke-width:1; stroke-linecap:round; stroke-linejoin:round; fill:#000000; fill-opacity:0.0; stroke:#000000; stroke-opacity:1.00;" transform="translate(-186 -13) scale(0.82 0.82)">
  <path d="M 267.00 50.00 L 255.00 52.00 C 247.00 53.33, 240.00 53.00, 234.00 51.00 C 228.00 49.00, 225.67 46.33, 227.00 43.00 C 228.33 39.67, 230.00 38.00, 232.00 38.00 L 235.00 38.00" style="fill:none" shape-rendering="auto" />
  <path d="M 235.00 38.00 L 237.50 32.50 C 239.17 28.83, 241.83 27.33, 245.50 28.00 L 251.00 29.00" style="fill:none" shape-rendering="auto" />
  <path d="M 251.00 29.00 L 254.50 26.00 C 256.83 24.00, 259.50 23.67, 262.50 25.00 C 265.50 26.33, 267.33 28.67, 268.00 32.00 L 269.00 37.00" style="fill:none" shape-rendering="auto" />
  <path d="M 269.00 37.00 L 272.00 38.50 C 274.00 39.50, 275.00 41.17, 275.00 43.50 C 275.00 45.83, 273.67 47.50, 271.00 48.50 L 267.00 50.00" style="fill:none" shape-rendering="auto" />
</g>
<g style="stroke-width:1; stroke-linecap:round; stroke-linejoin:round; fill:#000000; fill-opacity:0.0; stroke:#000000; stroke-opacity:0.0;" transform="translate(-186 -13) scale(0.82 0.82)">
  <rect x="343" y="47" width="78" height="54" rx="-0.05" shape-rendering="auto"  />
  <text x="349.00" y="62.00" textLength="67" style="font-family:Times New Roman; font-weight:400; font-style:normal; font-size:11.25pt; text-decoration: none; fill:#000000; fill-opacity:1.00; stroke:#000000; stroke-opacity:1.00; stroke-width:0; white-space: pre;" xml:space="preserve" transform="rotate(0.00 349.00 62.00)">cantidad de</text>
  <text x="365.00" y="78.00" textLength="34" style="font-family:Times New Roman; font-weight:400; font-style:normal; font-size:11.25pt; text-decoration: none; fill:#000000; fill-opacity:1.00; stroke:#000000; stroke-opacity:1.00; stroke-width:0; white-space: pre;" xml:space="preserve" transform="rotate(0.00 365.00 78.00)">peces</text>
  <text x="362.00" y="94.00" textLength="41" style="font-family:Times New Roman; font-weight:400; font-style:normal; font-size:11.25pt; text-decoration: none; fill:#000000; fill-opacity:1.00; stroke:#000000; stroke-opacity:1.00; stroke-width:0; white-space: pre;" xml:space="preserve" transform="rotate(0.00 362.00 94.00)">nuevos</text>
</g>
<g style="stroke-width:1; stroke-linecap:round; stroke-linejoin:round; fill:#000000; fill-opacity:0.0; stroke:#000000; stroke-opacity:1.00;" transform="translate(-186 -13) scale(0.82 0.82)">
  <path d="M 927.00 50.00 L 915.00 52.00 C 907.00 53.33, 900.00 53.00, 894.00 51.00 C 888.00 49.00, 885.67 46.33, 887.00 43.00 C 888.33 39.67, 890.00 38.00, 892.00 38.00 L 895.00 38.00" style="fill:none" shape-rendering="auto" />
  <path d="M 895.00 38.00 L 897.50 32.50 C 899.17 28.83, 901.83 27.33, 905.50 28.00 L 911.00 29.00" style="fill:none" shape-rendering="auto" />
  <path d="M 911.00 29.00 L 914.50 26.00 C 916.83 24.00, 919.50 23.67, 922.50 25.00 C 925.50 26.33, 927.33 28.67, 928.00 32.00 L 929.00 37.00" style="fill:none" shape-rendering="auto" />
  <path d="M 929.00 37.00 L 932.00 38.50 C 934.00 39.50, 935.00 41.17, 935.00 43.50 C 935.00 45.83, 933.67 47.50, 931.00 48.50 L 927.00 50.00" style="fill:none" shape-rendering="auto" />
</g>
<g style="stroke-width:1; stroke-linecap:round; stroke-linejoin:round; fill:#000000; fill-opacity:0.0; stroke:#000000; stroke-opacity:0.0;" transform="translate(-186 -13) scale(0.82 0.82)">
  <rect x="724" y="47" width="120" height="58" rx="-0.05" shape-rendering="auto"  />
  <text x="732.00" y="72.00" textLength="105" style="font-family:Times New Roman; font-weight:400; font-style:normal; font-size:11.25pt; text-decoration: none; fill:#000000; fill-opacity:1.00; stroke:#000000; stroke-opacity:1.00; stroke-width:0; white-space: pre;" xml:space="preserve" transform="rotate(0.00 732.00 72.00)">cantidad de peces</text>
  <text x="761.00" y="89.00" textLength="47" style="font-family:Times New Roman; font-weight:400; font-style:normal; font-size:11.25pt; text-decoration: none; fill:#000000; fill-opacity:1.00; stroke:#000000; stroke-opacity:1.00; stroke-width:0; white-space: pre;" xml:space="preserve" transform="rotate(0.00 761.00 89.00)">muertos</text>
</g>
<g style="stroke-width:1; stroke-linecap:round; stroke-linejoin:round; fill:#000000; fill-opacity:0.0; stroke:#000000; stroke-opacity:1.00;" transform="translate(-186 -13) scale(0.82 0.82)">
  <path d="M 843.00 240.00 L 831.00 242.00 C 823.00 243.33, 816.00 243.00, 810.00 241.00 C 804.00 239.00, 801.67 236.33, 803.00 233.00 C 804.33 229.67, 806.00 228.00, 808.00 228.00 L 811.00 228.00" style="fill:none" shape-rendering="auto" />
  <path d="M 811.00 228.00 L 813.50 222.50 C 815.17 218.83, 817.83 217.33, 821.50 218.00 L 827.00 219.00" style="fill:none" shape-rendering="auto" />
  <path d="M 827.00 219.00 L 830.50 216.00 C 832.83 214.00, 835.50 213.67, 838.50 215.00 C 841.50 216.33, 843.33 218.67, 844.00 222.00 L 845.00 227.00" style="fill:none" shape-rendering="auto" />
  <path d="M 845.00 227.00 L 848.00 228.50 C 850.00 229.50, 851.00 231.17, 851.00 233.50 C 851.00 235.83, 849.67 237.50, 847.00 238.50 L 843.00 240.00" style="fill:none" shape-rendering="auto" />
</g>
<g style="stroke-width:1; stroke-linecap:round; stroke-linejoin:round; fill:#000000; fill-opacity:0.0; stroke:#000000; stroke-opacity:1.00;" transform="translate(-186 -13) scale(0.82 0.82)">
  <path d="M 945.00 429.00 L 933.00 431.00 C 925.00 432.33, 918.00 432.00, 912.00 430.00 C 906.00 428.00, 903.67 425.33, 905.00 422.00 C 906.33 418.67, 908.00 417.00, 910.00 417.00 L 913.00 417.00" style="fill:none" shape-rendering="auto" />
  <path d="M 913.00 417.00 L 915.50 411.50 C 917.17 407.83, 919.83 406.33, 923.50 407.00 L 929.00 408.00" style="fill:none" shape-rendering="auto" />
  <path d="M 929.00 408.00 L 932.50 405.00 C 934.83 403.00, 937.50 402.67, 940.50 404.00 C 943.50 405.33, 945.33 407.67, 946.00 411.00 L 947.00 416.00" style="fill:none" shape-rendering="auto" />
  <path d="M 947.00 416.00 L 950.00 417.50 C 952.00 418.50, 953.00 420.17, 953.00 422.50 C 953.00 424.83, 951.67 426.50, 949.00 427.50 L 945.00 429.00" style="fill:none" shape-rendering="auto" />
</g>
<g style="stroke-width:1; stroke-linecap:round; stroke-linejoin:round; fill:#000000; fill-opacity:0.0; stroke:#000000; stroke-opacity:0.0;" transform="translate(-186 -13) scale(0.82 0.82)">
  <rect x="760" y="426" width="124" height="46" rx="-0.05" shape-rendering="auto"  />
  <text x="780.00" y="445.00" textLength="84" style="font-family:Times New Roman; font-weight:400; font-style:normal; font-size:11.25pt; text-decoration: none; fill:#000000; fill-opacity:1.00; stroke:#000000; stroke-opacity:1.00; stroke-width:0; white-space: pre;" xml:space="preserve" transform="rotate(0.00 780.00 445.00)">nuevos barcos</text>
  <text x="789.00" y="462.00" textLength="66" style="font-family:Times New Roman; font-weight:400; font-style:normal; font-size:11.25pt; text-decoration: none; fill:#000000; fill-opacity:1.00; stroke:#000000; stroke-opacity:1.00; stroke-width:0; white-space: pre;" xml:space="preserve" transform="rotate(0.00 789.00 462.00)">construidos</text>
</g>
<g style="stroke-width:1; stroke-linecap:round; stroke-linejoin:round; fill:#000000; fill-opacity:0.0; stroke:#000000; stroke-opacity:0.0;" transform="translate(-186 -13) scale(0.82 0.82)">
  <rect x="474" y="205" width="76" height="26" rx="-0.05" shape-rendering="auto"  />
  <text x="487.00" y="223.00" textLength="51" style="font-family:Times New Roman; font-weight:400; font-style:normal; font-size:11.25pt; text-decoration: none; fill:#000000; fill-opacity:1.00; stroke:#000000; stroke-opacity:1.00; stroke-width:0; white-space: pre;" xml:space="preserve" transform="rotate(0.00 487.00 223.00)">densidad</text>
</g>
<g style="stroke-width:1; stroke-linecap:round; stroke-linejoin:round; fill:#000000; fill-opacity:0.0; stroke:#000000; stroke-opacity:0.0;" transform="translate(-186 -13) scale(0.82 0.82)">
  <rect x="252" y="280" width="38" height="26" rx="-0.05" shape-rendering="auto"  />
  <text x="258.00" y="298.00" textLength="26" style="font-family:Times New Roman; font-weight:400; font-style:normal; font-size:11.25pt; text-decoration: none; fill:#000000; fill-opacity:1.00; stroke:#000000; stroke-opacity:1.00; stroke-width:0; white-space: pre;" xml:space="preserve" transform="rotate(0.00 258.00 298.00)">área</text>
</g>
<g style="stroke-width:1; stroke-linecap:round; stroke-linejoin:round; fill:#000000; fill-opacity:0.0; stroke:#000000; stroke-opacity:0.0;" transform="translate(-186 -13) scale(0.82 0.82)">
  <rect x="239" y="146" width="88" height="60" rx="-0.05" shape-rendering="auto"  />
  <text x="262.00" y="164.00" textLength="42" style="font-family:Times New Roman; font-weight:400; font-style:normal; font-size:11.25pt; text-decoration: none; fill:#000000; fill-opacity:1.00; stroke:#000000; stroke-opacity:1.00; stroke-width:0; white-space: pre;" xml:space="preserve" transform="rotate(0.00 262.00 164.00)">tasa de</text>
  <text x="248.00" y="181.00" textLength="70" style="font-family:Times New Roman; font-weight:400; font-style:normal; font-size:11.25pt; text-decoration: none; fill:#000000; fill-opacity:1.00; stroke:#000000; stroke-opacity:1.00; stroke-width:0; white-space: pre;" xml:space="preserve" transform="rotate(0.00 248.00 181.00)">natalidad de</text>
  <text x="266.00" y="198.00" textLength="34" style="font-family:Times New Roman; font-weight:400; font-style:normal; font-size:11.25pt; text-decoration: none; fill:#000000; fill-opacity:1.00; stroke:#000000; stroke-opacity:1.00; stroke-width:0; white-space: pre;" xml:space="preserve" transform="rotate(0.00 266.00 198.00)">peces</text>
</g>
<g style="stroke-width:1; stroke-linecap:round; stroke-linejoin:round; fill:#000000; fill-opacity:0.0; stroke:#000000; stroke-opacity:0.0;" transform="translate(-186 -13) scale(0.82 0.82)">
  <rect x="654" y="143" width="94" height="26" rx="-0.05" shape-rendering="auto"  />
  <text x="671.00" y="161.00" textLength="61" style="font-family:Times New Roman; font-weight:400; font-style:normal; font-size:11.25pt; text-decoration: none; fill:#000000; fill-opacity:1.00; stroke:#000000; stroke-opacity:1.00; stroke-width:0; white-space: pre;" xml:space="preserve" transform="rotate(0.00 671.00 161.00)">mortalidad</text>
</g>
<g style="stroke-width:1; stroke-linecap:round; stroke-linejoin:round; fill:#000000; fill-opacity:0.0; stroke:#000000; stroke-opacity:0.0;" transform="translate(-186 -13) scale(0.82 0.82)">
  <rect x="818" y="150" width="86" height="50" rx="-0.05" shape-rendering="auto"  />
  <text x="823.00" y="171.00" textLength="77" style="font-family:Times New Roman; font-weight:400; font-style:normal; font-size:11.25pt; text-decoration: none; fill:#000000; fill-opacity:1.00; stroke:#000000; stroke-opacity:1.00; stroke-width:0; white-space: pre;" xml:space="preserve" transform="rotate(0.00 823.00 171.00)">capacidad de</text>
  <text x="845.00" y="188.00" textLength="33" style="font-family:Times New Roman; font-weight:400; font-style:normal; font-size:11.25pt; text-decoration: none; fill:#000000; fill-opacity:1.00; stroke:#000000; stroke-opacity:1.00; stroke-width:0; white-space: pre;" xml:space="preserve" transform="rotate(0.00 845.00 188.00)">carga</text>
</g>
<g style="stroke-width:1; stroke-linecap:round; stroke-linejoin:round; fill:#C0FFFF; fill-opacity:1.00; stroke:#000000; stroke-opacity:1.00;" transform="translate(-186 -13) scale(0.82 0.82)">
  <path d="M382 35 L592 35" shape-rendering="auto" />
  <path d="M592 43 L382 43" shape-rendering="auto" />
</g>
<g style="stroke-width:1; stroke-linecap:round; stroke-linejoin:round; fill:#FFFFFF; fill-opacity:1.00; stroke:#000000; stroke-opacity:1.00;" transform="translate(-186 -13) scale(0.82 0.82)">
  <path d="M382 43 L275 43" shape-rendering="auto" />
  <path d="M275 35 L382 35" shape-rendering="auto" />
  <path d="M784 35 L886 35" shape-rendering="auto" />
  <path d="M886 43 L784 43" shape-rendering="auto" />
</g>
<g style="stroke-width:1; stroke-linecap:round; stroke-linejoin:round; fill:#C0FFFF; fill-opacity:1.00; stroke:#000000; stroke-opacity:1.00;" transform="translate(-186 -13) scale(0.82 0.82)">
  <path d="M784 43 L671 43" shape-rendering="auto" />
  <path d="M671 35 L784 35" shape-rendering="auto" />
</g>
<g style="stroke-width:1; stroke-linecap:round; stroke-linejoin:round; fill:#FFFFFF; fill-opacity:1.00; stroke:#000000; stroke-opacity:1.00;" transform="translate(-186 -13) scale(0.82 0.82)">
  <path d="M695 225 L802 225" shape-rendering="auto" />
  <path d="M802 233 L695 233" shape-rendering="auto" />
</g>
<g style="stroke-width:1; stroke-linecap:round; stroke-linejoin:round; fill:#C0FFFF; fill-opacity:1.00; stroke:#000000; stroke-opacity:1.00;" transform="translate(-186 -13) scale(0.82 0.82)">
  <path d="M695 233 L636 233" shape-rendering="auto" />
  <path d="M636 233 L628 233" shape-rendering="auto" />
  <path d="M628 233 L628 55" shape-rendering="auto" />
  <path d="M636 55 L636 225" shape-rendering="auto" />
  <path d="M636 225 L695 225" shape-rendering="auto" />
</g>
<g style="stroke-width:1; stroke-linecap:round; stroke-linejoin:round; fill:#FFC080; fill-opacity:1.00; stroke:#000000; stroke-opacity:1.00;" transform="translate(-186 -13) scale(0.82 0.82)">
  <path d="M822 422 L722 422" shape-rendering="auto" />
  <path d="M722 414 L822 414" shape-rendering="auto" />
</g>
<g style="stroke-width:1; stroke-linecap:round; stroke-linejoin:round; fill:#FFFFFF; fill-opacity:1.00; stroke:#000000; stroke-opacity:1.00;" transform="translate(-186 -13) scale(0.82 0.82)">
  <path d="M822 414 L904 414" shape-rendering="auto" />
  <path d="M904 422 L822 422" shape-rendering="auto" />
</g>
<g style="stroke-width:1; stroke-linecap:round; stroke-linejoin:round; fill:#000000; fill-opacity:1.00; stroke:#000000; stroke-opacity:1.00;" transform="translate(-186 -13) scale(0.82 0.82)">
  <polygon points="375 39 389 39 385 41 385 37 389 39 375 39 " shape-rendering="auto"   style="fill-rule:evenodd;"/>
</g>
<g style="stroke-width:1; stroke-linecap:round; stroke-linejoin:round; fill:#000000; fill-opacity:1.00; stroke:#000000; stroke-opacity:1.00;" transform="translate(-186 -13) scale(0.82 0.82)">
  <polygon points="777 39 791 39 787 41 787 37 791 39 777 39 " shape-rendering="auto"   style="fill-rule:evenodd;"/>
</g>
<g style="stroke-width:1; stroke-linecap:round; stroke-linejoin:round; fill:#000000; fill-opacity:1.00; stroke:#000000; stroke-opacity:1.00;" transform="translate(-186 -13) scale(0.82 0.82)">
  <polygon points="688 229 702 229 698 231 698 227 702 229 688 229 " shape-rendering="auto"   style="fill-rule:evenodd;"/>
</g>
<g style="stroke-width:1; stroke-linecap:round; stroke-linejoin:round; fill:#000000; fill-opacity:1.00; stroke:#000000; stroke-opacity:1.00;" transform="translate(-186 -13) scale(0.82 0.82)">
  <polygon points="829 418 815 418 819 420 819 416 815 418 829 418 " shape-rendering="auto"   style="fill-rule:evenodd;"/>
</g>
</svg>
